<mxfile host="Electron" agent="Mozilla/5.0 (X11; Linux x86_64) AppleWebKit/537.36 (KHTML, like Gecko) draw.io/24.7.17 Chrome/130.0.6723.59 Electron/33.0.2 Safari/537.36" version="24.7.17">
  <diagram name="Page-1" id="Si6uJRp5WX2FQGpw0783">
    <mxGraphModel dx="652" dy="519" grid="1" gridSize="10" guides="1" tooltips="1" connect="1" arrows="1" fold="1" page="1" pageScale="1" pageWidth="1169" pageHeight="827" math="0" shadow="0">
      <root>
        <mxCell id="0" />
        <mxCell id="1" parent="0" />
        <mxCell id="p5L4UiXrf9V-w9ehLVm4-7" value="" style="rounded=0;whiteSpace=wrap;html=1;" parent="1" vertex="1">
          <mxGeometry x="100" y="400" width="290" height="280" as="geometry" />
        </mxCell>
        <mxCell id="G3IrLJ2idyfWQvbDSn6W-2" value="" style="rounded=0;whiteSpace=wrap;html=1;" parent="1" vertex="1">
          <mxGeometry x="210" y="430" width="150" height="50" as="geometry" />
        </mxCell>
        <mxCell id="p5L4UiXrf9V-w9ehLVm4-16" value="" style="rounded=0;whiteSpace=wrap;html=1;" parent="1" vertex="1">
          <mxGeometry x="450" y="570" width="200" height="160" as="geometry" />
        </mxCell>
        <mxCell id="p5L4UiXrf9V-w9ehLVm4-128" style="edgeStyle=orthogonalEdgeStyle;rounded=0;orthogonalLoop=1;jettySize=auto;html=1;exitX=0.5;exitY=1;exitDx=0;exitDy=0;entryX=0;entryY=0.25;entryDx=0;entryDy=0;fillColor=#ffff88;strokeColor=#8A81CF;" parent="1" source="p5L4UiXrf9V-w9ehLVm4-18" target="p5L4UiXrf9V-w9ehLVm4-123" edge="1">
          <mxGeometry relative="1" as="geometry">
            <Array as="points">
              <mxPoint x="225" y="370" />
              <mxPoint x="700" y="370" />
              <mxPoint x="700" y="455" />
            </Array>
          </mxGeometry>
        </mxCell>
        <mxCell id="p5L4UiXrf9V-w9ehLVm4-18" value="" style="rounded=0;whiteSpace=wrap;html=1;" parent="1" vertex="1">
          <mxGeometry x="90" width="270" height="310" as="geometry" />
        </mxCell>
        <mxCell id="p5L4UiXrf9V-w9ehLVm4-119" value="" style="ellipse;shape=cloud;whiteSpace=wrap;html=1;strokeColor=#FFCC99;fillColor=#ffcc99;" parent="1" vertex="1">
          <mxGeometry x="33" y="700" width="90" height="70" as="geometry" />
        </mxCell>
        <mxCell id="p5L4UiXrf9V-w9ehLVm4-117" value="" style="ellipse;shape=cloud;whiteSpace=wrap;html=1;strokeColor=#FFCC99;fillColor=#ffcc99;" parent="1" vertex="1">
          <mxGeometry x="30" y="310" width="86" height="70" as="geometry" />
        </mxCell>
        <mxCell id="p5L4UiXrf9V-w9ehLVm4-116" value="" style="ellipse;shape=cloud;whiteSpace=wrap;html=1;strokeColor=#FFCC99;fillColor=#ffcc99;" parent="1" vertex="1">
          <mxGeometry x="630" y="18" width="80" height="80" as="geometry" />
        </mxCell>
        <mxCell id="p5L4UiXrf9V-w9ehLVm4-115" value="" style="ellipse;shape=cloud;whiteSpace=wrap;html=1;strokeColor=#FFCC99;fillColor=#ffcc99;" parent="1" vertex="1">
          <mxGeometry x="360" y="39" width="50" height="71" as="geometry" />
        </mxCell>
        <mxCell id="p5L4UiXrf9V-w9ehLVm4-122" style="edgeStyle=orthogonalEdgeStyle;rounded=0;orthogonalLoop=1;jettySize=auto;html=1;exitX=0;exitY=0.5;exitDx=0;exitDy=0;entryX=0.5;entryY=1;entryDx=0;entryDy=0;" parent="1" source="p5L4UiXrf9V-w9ehLVm4-52" target="p5L4UiXrf9V-w9ehLVm4-120" edge="1">
          <mxGeometry relative="1" as="geometry">
            <Array as="points">
              <mxPoint x="600" y="290" />
              <mxPoint x="600" y="330" />
              <mxPoint x="300" y="330" />
            </Array>
          </mxGeometry>
        </mxCell>
        <mxCell id="p5L4UiXrf9V-w9ehLVm4-52" value="" style="rounded=0;whiteSpace=wrap;html=1;" parent="1" vertex="1">
          <mxGeometry x="681" y="230" width="290" height="120" as="geometry" />
        </mxCell>
        <mxCell id="p5L4UiXrf9V-w9ehLVm4-42" value="" style="rounded=0;whiteSpace=wrap;html=1;" parent="1" vertex="1">
          <mxGeometry x="420" width="170" height="310" as="geometry" />
        </mxCell>
        <mxCell id="p5L4UiXrf9V-w9ehLVm4-129" style="edgeStyle=orthogonalEdgeStyle;rounded=0;orthogonalLoop=1;jettySize=auto;html=1;exitX=1;exitY=0.5;exitDx=0;exitDy=0;entryX=0;entryY=0.75;entryDx=0;entryDy=0;fillColor=#ffff88;strokeColor=#8A81CF;" parent="1" source="p5L4UiXrf9V-w9ehLVm4-7" target="p5L4UiXrf9V-w9ehLVm4-123" edge="1">
          <mxGeometry relative="1" as="geometry">
            <Array as="points">
              <mxPoint x="390" y="550" />
              <mxPoint x="570" y="550" />
              <mxPoint x="570" y="530" />
              <mxPoint x="700" y="530" />
              <mxPoint x="700" y="505" />
            </Array>
          </mxGeometry>
        </mxCell>
        <mxCell id="p5L4UiXrf9V-w9ehLVm4-2" value="IFU" style="text;html=1;align=center;verticalAlign=middle;whiteSpace=wrap;rounded=0;" parent="1" vertex="1">
          <mxGeometry x="100" y="400" width="30" height="20" as="geometry" />
        </mxCell>
        <mxCell id="p5L4UiXrf9V-w9ehLVm4-60" style="edgeStyle=orthogonalEdgeStyle;rounded=0;orthogonalLoop=1;jettySize=auto;html=1;exitX=0.5;exitY=1;exitDx=0;exitDy=0;" parent="1" source="p5L4UiXrf9V-w9ehLVm4-3" target="p5L4UiXrf9V-w9ehLVm4-6" edge="1">
          <mxGeometry relative="1" as="geometry">
            <Array as="points">
              <mxPoint x="135" y="490" />
              <mxPoint x="225" y="490" />
            </Array>
          </mxGeometry>
        </mxCell>
        <mxCell id="p5L4UiXrf9V-w9ehLVm4-3" value="PC" style="rounded=1;whiteSpace=wrap;html=1;" parent="1" vertex="1">
          <mxGeometry x="120" y="430" width="30" height="20" as="geometry" />
        </mxCell>
        <mxCell id="p5L4UiXrf9V-w9ehLVm4-59" style="edgeStyle=orthogonalEdgeStyle;rounded=0;orthogonalLoop=1;jettySize=auto;html=1;exitX=0;exitY=0.25;exitDx=0;exitDy=0;" parent="1" source="G3IrLJ2idyfWQvbDSn6W-2" target="p5L4UiXrf9V-w9ehLVm4-3" edge="1">
          <mxGeometry relative="1" as="geometry">
            <Array as="points">
              <mxPoint x="200" y="440" />
              <mxPoint x="200" y="440" />
            </Array>
            <mxPoint x="210" y="437.5" as="sourcePoint" />
          </mxGeometry>
        </mxCell>
        <mxCell id="p5L4UiXrf9V-w9ehLVm4-6" value="" style="rounded=0;whiteSpace=wrap;html=1;" parent="1" vertex="1">
          <mxGeometry x="120" y="510" width="210" height="110" as="geometry" />
        </mxCell>
        <mxCell id="p5L4UiXrf9V-w9ehLVm4-8" value="iCache" style="text;html=1;align=center;verticalAlign=middle;whiteSpace=wrap;rounded=0;" parent="1" vertex="1">
          <mxGeometry x="122.5" y="512.5" width="47.5" height="17.5" as="geometry" />
        </mxCell>
        <mxCell id="p5L4UiXrf9V-w9ehLVm4-14" value="Data" style="shape=process;whiteSpace=wrap;html=1;backgroundOutline=1;" parent="1" vertex="1">
          <mxGeometry x="190" y="580" width="50" height="20" as="geometry" />
        </mxCell>
        <mxCell id="p5L4UiXrf9V-w9ehLVm4-15" value="Tag" style="shape=process;whiteSpace=wrap;html=1;backgroundOutline=1;" parent="1" vertex="1">
          <mxGeometry x="130" y="580" width="50" height="20" as="geometry" />
        </mxCell>
        <mxCell id="p5L4UiXrf9V-w9ehLVm4-17" value="Arbiter" style="text;html=1;align=center;verticalAlign=middle;whiteSpace=wrap;rounded=0;" parent="1" vertex="1">
          <mxGeometry x="450" y="570" width="50" height="20" as="geometry" />
        </mxCell>
        <mxCell id="p5L4UiXrf9V-w9ehLVm4-19" value="IDU" style="text;html=1;align=center;verticalAlign=middle;whiteSpace=wrap;rounded=0;" parent="1" vertex="1">
          <mxGeometry x="90" width="30" height="20" as="geometry" />
        </mxCell>
        <mxCell id="p5L4UiXrf9V-w9ehLVm4-101" style="edgeStyle=orthogonalEdgeStyle;rounded=0;orthogonalLoop=1;jettySize=auto;html=1;exitX=1;exitY=0.25;exitDx=0;exitDy=0;entryX=-0.009;entryY=0.334;entryDx=0;entryDy=0;fillColor=#d5e8d4;strokeColor=#82b366;entryPerimeter=0;" parent="1" source="p5L4UiXrf9V-w9ehLVm4-21" target="p5L4UiXrf9V-w9ehLVm4-45" edge="1">
          <mxGeometry relative="1" as="geometry">
            <Array as="points">
              <mxPoint x="328" y="83" />
              <mxPoint x="328" y="70" />
              <mxPoint x="469" y="70" />
            </Array>
          </mxGeometry>
        </mxCell>
        <mxCell id="p5L4UiXrf9V-w9ehLVm4-21" value="Decoder" style="rounded=1;whiteSpace=wrap;html=1;" parent="1" vertex="1">
          <mxGeometry x="135" y="50" width="50" height="130" as="geometry" />
        </mxCell>
        <mxCell id="p5L4UiXrf9V-w9ehLVm4-41" style="edgeStyle=orthogonalEdgeStyle;rounded=0;orthogonalLoop=1;jettySize=auto;html=1;exitX=1;exitY=0.5;exitDx=0;exitDy=0;fillColor=#ffe6cc;strokeColor=#d79b00;" parent="1" source="p5L4UiXrf9V-w9ehLVm4-22" target="p5L4UiXrf9V-w9ehLVm4-23" edge="1">
          <mxGeometry relative="1" as="geometry">
            <Array as="points">
              <mxPoint x="220" y="215" />
              <mxPoint x="220" y="170" />
            </Array>
          </mxGeometry>
        </mxCell>
        <mxCell id="p5L4UiXrf9V-w9ehLVm4-22" value="IMM-Gen" style="rounded=1;whiteSpace=wrap;html=1;" parent="1" vertex="1">
          <mxGeometry x="120" y="190" width="80" height="50" as="geometry" />
        </mxCell>
        <mxCell id="p5L4UiXrf9V-w9ehLVm4-89" style="edgeStyle=orthogonalEdgeStyle;rounded=0;orthogonalLoop=1;jettySize=auto;html=1;exitX=0.5;exitY=0;exitDx=0;exitDy=0;fillColor=#ffe6cc;strokeColor=#d79b00;" parent="1" source="p5L4UiXrf9V-w9ehLVm4-23" target="p5L4UiXrf9V-w9ehLVm4-47" edge="1">
          <mxGeometry relative="1" as="geometry">
            <Array as="points">
              <mxPoint x="340" y="170" />
              <mxPoint x="340" y="90" />
              <mxPoint x="410" y="90" />
              <mxPoint x="410" y="200" />
            </Array>
          </mxGeometry>
        </mxCell>
        <mxCell id="p5L4UiXrf9V-w9ehLVm4-23" value="" style="shape=trapezoid;perimeter=trapezoidPerimeter;whiteSpace=wrap;html=1;fixedSize=1;rotation=90;" parent="1" vertex="1">
          <mxGeometry x="250" y="160" width="90" height="20" as="geometry" />
        </mxCell>
        <mxCell id="p5L4UiXrf9V-w9ehLVm4-24" value="" style="rounded=0;whiteSpace=wrap;html=1;" parent="1" vertex="1">
          <mxGeometry x="450" y="400" width="200" height="120" as="geometry" />
        </mxCell>
        <mxCell id="p5L4UiXrf9V-w9ehLVm4-25" value="Regs" style="text;html=1;align=center;verticalAlign=middle;whiteSpace=wrap;rounded=0;" parent="1" vertex="1">
          <mxGeometry x="450" y="400" width="40" height="20" as="geometry" />
        </mxCell>
        <mxCell id="p5L4UiXrf9V-w9ehLVm4-26" value="General" style="rounded=1;whiteSpace=wrap;html=1;" parent="1" vertex="1">
          <mxGeometry x="460" y="430" width="90" height="60" as="geometry" />
        </mxCell>
        <mxCell id="p5L4UiXrf9V-w9ehLVm4-27" value="CSR" style="rounded=1;whiteSpace=wrap;html=1;" parent="1" vertex="1">
          <mxGeometry x="570" y="430" width="70" height="60" as="geometry" />
        </mxCell>
        <mxCell id="p5L4UiXrf9V-w9ehLVm4-29" value="REG-Sel" style="rounded=1;whiteSpace=wrap;html=1;" parent="1" vertex="1">
          <mxGeometry x="120" y="250" width="80" height="40" as="geometry" />
        </mxCell>
        <mxCell id="p5L4UiXrf9V-w9ehLVm4-43" value="EXU" style="text;html=1;align=center;verticalAlign=middle;whiteSpace=wrap;rounded=0;" parent="1" vertex="1">
          <mxGeometry x="420" width="30" height="20" as="geometry" />
        </mxCell>
        <mxCell id="p5L4UiXrf9V-w9ehLVm4-109" style="edgeStyle=orthogonalEdgeStyle;rounded=0;orthogonalLoop=1;jettySize=auto;html=1;exitX=1;exitY=0.25;exitDx=0;exitDy=0;entryX=0.224;entryY=-0.02;entryDx=0;entryDy=0;fillColor=#e1d5e7;strokeColor=#9673a6;entryPerimeter=0;" parent="1" source="p5L4UiXrf9V-w9ehLVm4-45" target="p5L4UiXrf9V-w9ehLVm4-55" edge="1">
          <mxGeometry relative="1" as="geometry" />
        </mxCell>
        <mxCell id="p5L4UiXrf9V-w9ehLVm4-45" value="" style="rounded=0;whiteSpace=wrap;html=1;" parent="1" vertex="1">
          <mxGeometry x="470" y="40" width="70" height="90" as="geometry" />
        </mxCell>
        <mxCell id="p5L4UiXrf9V-w9ehLVm4-46" value="ALU" style="text;html=1;align=center;verticalAlign=middle;whiteSpace=wrap;rounded=0;" parent="1" vertex="1">
          <mxGeometry x="470" y="40" width="30" height="20" as="geometry" />
        </mxCell>
        <mxCell id="p5L4UiXrf9V-w9ehLVm4-47" value="" style="rounded=0;whiteSpace=wrap;html=1;" parent="1" vertex="1">
          <mxGeometry x="470" y="150" width="70" height="100" as="geometry" />
        </mxCell>
        <mxCell id="p5L4UiXrf9V-w9ehLVm4-48" value="BranchUnit" style="text;html=1;align=center;verticalAlign=middle;whiteSpace=wrap;rounded=0;" parent="1" vertex="1">
          <mxGeometry x="470" y="150" width="70" height="20" as="geometry" />
        </mxCell>
        <mxCell id="p5L4UiXrf9V-w9ehLVm4-107" style="edgeStyle=orthogonalEdgeStyle;rounded=0;orthogonalLoop=1;jettySize=auto;html=1;exitX=0;exitY=0.5;exitDx=0;exitDy=0;entryX=0.5;entryY=1;entryDx=0;entryDy=0;fillColor=#fad7ac;strokeColor=#b46504;" parent="1" source="p5L4UiXrf9V-w9ehLVm4-49" target="p5L4UiXrf9V-w9ehLVm4-26" edge="1">
          <mxGeometry relative="1" as="geometry">
            <Array as="points">
              <mxPoint x="720" y="700" />
              <mxPoint x="720" y="540" />
              <mxPoint x="505" y="540" />
            </Array>
          </mxGeometry>
        </mxCell>
        <mxCell id="p5L4UiXrf9V-w9ehLVm4-114" style="edgeStyle=orthogonalEdgeStyle;rounded=0;orthogonalLoop=1;jettySize=auto;html=1;exitX=0;exitY=0.5;exitDx=0;exitDy=0;" parent="1" source="p5L4UiXrf9V-w9ehLVm4-49" edge="1">
          <mxGeometry relative="1" as="geometry">
            <Array as="points">
              <mxPoint x="835" y="730" />
              <mxPoint x="670" y="730" />
              <mxPoint x="670" y="810" />
              <mxPoint x="80" y="810" />
              <mxPoint x="80" y="420" />
              <mxPoint x="220" y="420" />
            </Array>
            <mxPoint x="220" y="430" as="targetPoint" />
          </mxGeometry>
        </mxCell>
        <mxCell id="p5L4UiXrf9V-w9ehLVm4-150" style="edgeStyle=orthogonalEdgeStyle;rounded=0;orthogonalLoop=1;jettySize=auto;html=1;exitX=0;exitY=0.25;exitDx=0;exitDy=0;fillColor=#fad7ac;strokeColor=#b46504;" parent="1" source="p5L4UiXrf9V-w9ehLVm4-49" target="p5L4UiXrf9V-w9ehLVm4-27" edge="1">
          <mxGeometry relative="1" as="geometry">
            <Array as="points">
              <mxPoint x="770" y="660" />
              <mxPoint x="770" y="550" />
              <mxPoint x="605" y="550" />
            </Array>
          </mxGeometry>
        </mxCell>
        <mxCell id="p5L4UiXrf9V-w9ehLVm4-49" value="" style="rounded=0;whiteSpace=wrap;html=1;" parent="1" vertex="1">
          <mxGeometry x="835" y="620" width="140" height="160" as="geometry" />
        </mxCell>
        <mxCell id="p5L4UiXrf9V-w9ehLVm4-50" value="WBU" style="text;html=1;align=center;verticalAlign=middle;whiteSpace=wrap;rounded=0;" parent="1" vertex="1">
          <mxGeometry x="835" y="620" width="40" height="20" as="geometry" />
        </mxCell>
        <mxCell id="p5L4UiXrf9V-w9ehLVm4-53" value="LSU" style="text;html=1;align=center;verticalAlign=middle;whiteSpace=wrap;rounded=0;" parent="1" vertex="1">
          <mxGeometry x="681" y="230" width="30" height="20" as="geometry" />
        </mxCell>
        <mxCell id="p5L4UiXrf9V-w9ehLVm4-112" style="edgeStyle=orthogonalEdgeStyle;rounded=0;orthogonalLoop=1;jettySize=auto;html=1;exitX=1;exitY=0.5;exitDx=0;exitDy=0;fillColor=#dae8fc;strokeColor=#6c8ebf;" parent="1" source="p5L4UiXrf9V-w9ehLVm4-55" target="p5L4UiXrf9V-w9ehLVm4-49" edge="1">
          <mxGeometry relative="1" as="geometry" />
        </mxCell>
        <mxCell id="p5L4UiXrf9V-w9ehLVm4-55" value="AXI_4 interface logic" style="rounded=1;whiteSpace=wrap;html=1;" parent="1" vertex="1">
          <mxGeometry x="691" y="260" width="190" height="60" as="geometry" />
        </mxCell>
        <mxCell id="p5L4UiXrf9V-w9ehLVm4-57" value="R_Channels" style="rounded=1;whiteSpace=wrap;html=1;" parent="1" vertex="1">
          <mxGeometry x="460" y="600" width="80" height="30" as="geometry" />
        </mxCell>
        <mxCell id="p5L4UiXrf9V-w9ehLVm4-58" value="W_Channels" style="rounded=1;whiteSpace=wrap;html=1;" parent="1" vertex="1">
          <mxGeometry x="555" y="600" width="80" height="30" as="geometry" />
        </mxCell>
        <mxCell id="p5L4UiXrf9V-w9ehLVm4-63" style="edgeStyle=orthogonalEdgeStyle;rounded=0;orthogonalLoop=1;jettySize=auto;html=1;fillColor=#f8cecc;strokeColor=#b85450;" parent="1" target="p5L4UiXrf9V-w9ehLVm4-21" edge="1">
          <mxGeometry relative="1" as="geometry">
            <Array as="points">
              <mxPoint x="370" y="540" />
              <mxPoint x="370" y="380" />
              <mxPoint x="70" y="380" />
              <mxPoint x="70" y="140" />
            </Array>
            <mxPoint x="330" y="540" as="sourcePoint" />
          </mxGeometry>
        </mxCell>
        <mxCell id="p5L4UiXrf9V-w9ehLVm4-73" value="" style="endArrow=classic;html=1;rounded=0;fillColor=#f8cecc;strokeColor=#b85450;" parent="1" edge="1">
          <mxGeometry width="50" height="50" relative="1" as="geometry">
            <mxPoint x="100" y="140" as="sourcePoint" />
            <mxPoint x="120" y="220" as="targetPoint" />
            <Array as="points">
              <mxPoint x="100" y="220" />
            </Array>
          </mxGeometry>
        </mxCell>
        <mxCell id="p5L4UiXrf9V-w9ehLVm4-74" value="" style="endArrow=classic;html=1;rounded=0;fillColor=#f8cecc;strokeColor=#b85450;" parent="1" edge="1">
          <mxGeometry width="50" height="50" relative="1" as="geometry">
            <mxPoint x="100" y="220" as="sourcePoint" />
            <mxPoint x="120" y="270" as="targetPoint" />
            <Array as="points">
              <mxPoint x="100" y="270" />
            </Array>
          </mxGeometry>
        </mxCell>
        <mxCell id="p5L4UiXrf9V-w9ehLVm4-75" value="" style="endArrow=classic;startArrow=classic;html=1;rounded=0;exitX=0.35;exitY=0.021;exitDx=0;exitDy=0;exitPerimeter=0;fillColor=#ffe6cc;strokeColor=#D79B00;" parent="1" source="p5L4UiXrf9V-w9ehLVm4-26" edge="1">
          <mxGeometry width="50" height="50" relative="1" as="geometry">
            <mxPoint x="100" y="340" as="sourcePoint" />
            <mxPoint x="150" y="290" as="targetPoint" />
            <Array as="points">
              <mxPoint x="490" y="360" />
              <mxPoint x="150" y="360" />
            </Array>
          </mxGeometry>
        </mxCell>
        <mxCell id="p5L4UiXrf9V-w9ehLVm4-82" value="" style="endArrow=classic;startArrow=classic;html=1;rounded=0;entryX=0;entryY=0.75;entryDx=0;entryDy=0;fillColor=#fff2cc;strokeColor=#d6b656;" parent="1" target="p5L4UiXrf9V-w9ehLVm4-55" edge="1">
          <mxGeometry width="50" height="50" relative="1" as="geometry">
            <mxPoint x="510" y="600" as="sourcePoint" />
            <mxPoint x="560" y="550" as="targetPoint" />
            <Array as="points">
              <mxPoint x="510" y="560" />
              <mxPoint x="670" y="560" />
              <mxPoint x="670" y="305" />
            </Array>
          </mxGeometry>
        </mxCell>
        <mxCell id="p5L4UiXrf9V-w9ehLVm4-86" value="" style="endArrow=classic;startArrow=classic;html=1;rounded=0;entryX=0;entryY=0.5;entryDx=0;entryDy=0;fillColor=#ffe6cc;strokeColor=#d79b00;" parent="1" target="p5L4UiXrf9V-w9ehLVm4-57" edge="1">
          <mxGeometry width="50" height="50" relative="1" as="geometry">
            <mxPoint x="330" y="570" as="sourcePoint" />
            <mxPoint x="380" y="520" as="targetPoint" />
            <Array as="points">
              <mxPoint x="420" y="570" />
              <mxPoint x="420" y="615" />
            </Array>
          </mxGeometry>
        </mxCell>
        <mxCell id="p5L4UiXrf9V-w9ehLVm4-87" style="edgeStyle=orthogonalEdgeStyle;rounded=0;orthogonalLoop=1;jettySize=auto;html=1;exitX=1;exitY=0.5;exitDx=0;exitDy=0;entryX=0.828;entryY=0.974;entryDx=0;entryDy=0;entryPerimeter=0;fillColor=#ffe6cc;strokeColor=#d79b00;" parent="1" source="p5L4UiXrf9V-w9ehLVm4-29" target="p5L4UiXrf9V-w9ehLVm4-23" edge="1">
          <mxGeometry relative="1" as="geometry" />
        </mxCell>
        <mxCell id="p5L4UiXrf9V-w9ehLVm4-90" value="" style="endArrow=classic;html=1;rounded=0;entryX=0;entryY=0.25;entryDx=0;entryDy=0;fillColor=#d5e8d4;strokeColor=#82b366;" parent="1" edge="1">
          <mxGeometry width="50" height="50" relative="1" as="geometry">
            <mxPoint x="440" y="70" as="sourcePoint" />
            <mxPoint x="470" y="177" as="targetPoint" />
            <Array as="points">
              <mxPoint x="440" y="177" />
            </Array>
          </mxGeometry>
        </mxCell>
        <mxCell id="p5L4UiXrf9V-w9ehLVm4-91" value="" style="endArrow=classic;html=1;rounded=0;fillColor=#fff2cc;strokeColor=#d6b656;" parent="1" edge="1">
          <mxGeometry width="50" height="50" relative="1" as="geometry">
            <mxPoint x="610" y="560" as="sourcePoint" />
            <mxPoint x="610" y="600" as="targetPoint" />
          </mxGeometry>
        </mxCell>
        <mxCell id="p5L4UiXrf9V-w9ehLVm4-92" value="" style="endArrow=classic;html=1;rounded=0;entryX=1;entryY=0;entryDx=0;entryDy=0;fillColor=#fff2cc;strokeColor=#d6b656;" parent="1" target="p5L4UiXrf9V-w9ehLVm4-106" edge="1">
          <mxGeometry width="50" height="50" relative="1" as="geometry">
            <mxPoint x="510" y="630" as="sourcePoint" />
            <mxPoint x="560" y="580" as="targetPoint" />
          </mxGeometry>
        </mxCell>
        <mxCell id="p5L4UiXrf9V-w9ehLVm4-93" value="" style="endArrow=classic;html=1;rounded=0;entryX=0.718;entryY=0.011;entryDx=0;entryDy=0;entryPerimeter=0;fillColor=#fff2cc;strokeColor=#d6b656;" parent="1" target="p5L4UiXrf9V-w9ehLVm4-105" edge="1">
          <mxGeometry width="50" height="50" relative="1" as="geometry">
            <mxPoint x="590" y="630" as="sourcePoint" />
            <mxPoint x="640" y="580" as="targetPoint" />
          </mxGeometry>
        </mxCell>
        <mxCell id="p5L4UiXrf9V-w9ehLVm4-100" value="" style="endArrow=classic;html=1;rounded=0;entryX=0;entryY=0.5;entryDx=0;entryDy=0;fillColor=#ffe6cc;strokeColor=#d79b00;" parent="1" target="p5L4UiXrf9V-w9ehLVm4-45" edge="1">
          <mxGeometry width="50" height="50" relative="1" as="geometry">
            <mxPoint x="430" y="200" as="sourcePoint" />
            <mxPoint x="440" y="150" as="targetPoint" />
            <Array as="points">
              <mxPoint x="430" y="85" />
            </Array>
          </mxGeometry>
        </mxCell>
        <mxCell id="p5L4UiXrf9V-w9ehLVm4-105" value="" style="rounded=0;whiteSpace=wrap;html=1;" parent="1" vertex="1">
          <mxGeometry x="460" y="645" width="180" height="75" as="geometry" />
        </mxCell>
        <mxCell id="p5L4UiXrf9V-w9ehLVm4-103" value="CLINT" style="rounded=0;whiteSpace=wrap;html=1;" parent="1" vertex="1">
          <mxGeometry x="480" y="680" width="90" height="30" as="geometry" />
        </mxCell>
        <mxCell id="p5L4UiXrf9V-w9ehLVm4-106" value="XBAR" style="text;html=1;align=center;verticalAlign=middle;whiteSpace=wrap;rounded=0;" parent="1" vertex="1">
          <mxGeometry x="460" y="645" width="50" height="25" as="geometry" />
        </mxCell>
        <mxCell id="p5L4UiXrf9V-w9ehLVm4-110" value="" style="endArrow=none;html=1;rounded=0;fillColor=#d5e8d4;strokeColor=#82b366;" parent="1" edge="1">
          <mxGeometry width="50" height="50" relative="1" as="geometry">
            <mxPoint x="430" y="70" as="sourcePoint" />
            <mxPoint x="570" y="62" as="targetPoint" />
            <Array as="points">
              <mxPoint x="430" y="20" />
              <mxPoint x="570" y="20" />
            </Array>
          </mxGeometry>
        </mxCell>
        <mxCell id="p5L4UiXrf9V-w9ehLVm4-111" value="" style="endArrow=none;html=1;rounded=0;fillColor=#e1d5e7;strokeColor=#9673a6;" parent="1" edge="1">
          <mxGeometry width="50" height="50" relative="1" as="geometry">
            <mxPoint x="540" y="202" as="sourcePoint" />
            <mxPoint x="560" y="62" as="targetPoint" />
            <Array as="points">
              <mxPoint x="560" y="202" />
            </Array>
          </mxGeometry>
        </mxCell>
        <mxCell id="p5L4UiXrf9V-w9ehLVm4-113" value="" style="endArrow=none;html=1;rounded=0;fillColor=#dae8fc;strokeColor=#6c8ebf;" parent="1" edge="1">
          <mxGeometry width="50" height="50" relative="1" as="geometry">
            <mxPoint x="734" y="240" as="sourcePoint" />
            <mxPoint x="905" y="290" as="targetPoint" />
            <Array as="points">
              <mxPoint x="905" y="240" />
            </Array>
          </mxGeometry>
        </mxCell>
        <mxCell id="p5L4UiXrf9V-w9ehLVm4-120" value="D-hazard" style="rounded=1;whiteSpace=wrap;html=1;" parent="1" vertex="1">
          <mxGeometry x="260" y="230" width="80" height="70" as="geometry" />
        </mxCell>
        <mxCell id="p5L4UiXrf9V-w9ehLVm4-121" style="edgeStyle=orthogonalEdgeStyle;rounded=0;orthogonalLoop=1;jettySize=auto;html=1;exitX=0.25;exitY=1;exitDx=0;exitDy=0;" parent="1" source="p5L4UiXrf9V-w9ehLVm4-42" edge="1">
          <mxGeometry relative="1" as="geometry">
            <Array as="points">
              <mxPoint x="463" y="320" />
              <mxPoint x="380" y="320" />
              <mxPoint x="380" y="278" />
            </Array>
            <mxPoint x="340" y="278" as="targetPoint" />
          </mxGeometry>
        </mxCell>
        <mxCell id="p5L4UiXrf9V-w9ehLVm4-123" value="" style="rounded=0;whiteSpace=wrap;html=1;" parent="1" vertex="1">
          <mxGeometry x="750" y="430" width="140" height="100" as="geometry" />
        </mxCell>
        <mxCell id="p5L4UiXrf9V-w9ehLVm4-124" value="Control-hazard" style="text;html=1;align=center;verticalAlign=middle;whiteSpace=wrap;rounded=0;" parent="1" vertex="1">
          <mxGeometry x="750" y="430" width="90" height="20" as="geometry" />
        </mxCell>
        <mxCell id="p5L4UiXrf9V-w9ehLVm4-125" style="edgeStyle=orthogonalEdgeStyle;rounded=0;orthogonalLoop=1;jettySize=auto;html=1;strokeColor=#8A81CF;" parent="1" target="p5L4UiXrf9V-w9ehLVm4-123" edge="1">
          <mxGeometry relative="1" as="geometry">
            <mxPoint x="835" y="640" as="sourcePoint" />
            <mxPoint x="800" y="530" as="targetPoint" />
            <Array as="points">
              <mxPoint x="801" y="640" />
            </Array>
          </mxGeometry>
        </mxCell>
        <mxCell id="p5L4UiXrf9V-w9ehLVm4-127" style="edgeStyle=orthogonalEdgeStyle;rounded=0;orthogonalLoop=1;jettySize=auto;html=1;exitX=0.75;exitY=1;exitDx=0;exitDy=0;entryX=0.006;entryY=0.564;entryDx=0;entryDy=0;entryPerimeter=0;fillColor=#d0cee2;strokeColor=#8A81CF;" parent="1" source="p5L4UiXrf9V-w9ehLVm4-42" target="p5L4UiXrf9V-w9ehLVm4-123" edge="1">
          <mxGeometry relative="1" as="geometry">
            <Array as="points">
              <mxPoint x="548" y="360" />
              <mxPoint x="680" y="360" />
              <mxPoint x="680" y="486" />
            </Array>
          </mxGeometry>
        </mxCell>
        <mxCell id="p5L4UiXrf9V-w9ehLVm4-130" value="flush-pipeline" style="shape=cube;whiteSpace=wrap;html=1;boundedLbl=1;backgroundOutline=1;darkOpacity=0.05;darkOpacity2=0.1;size=10;" parent="1" vertex="1">
          <mxGeometry x="770" y="470" width="100" height="42.5" as="geometry" />
        </mxCell>
        <mxCell id="p5L4UiXrf9V-w9ehLVm4-132" value="" style="rounded=0;whiteSpace=wrap;html=1;" parent="1" vertex="1">
          <mxGeometry x="1000" y="360" width="140" height="460" as="geometry" />
        </mxCell>
        <mxCell id="p5L4UiXrf9V-w9ehLVm4-134" style="edgeStyle=orthogonalEdgeStyle;rounded=0;orthogonalLoop=1;jettySize=auto;html=1;exitX=0.5;exitY=1;exitDx=0;exitDy=0;entryX=-0.007;entryY=0.974;entryDx=0;entryDy=0;entryPerimeter=0;" parent="1" source="p5L4UiXrf9V-w9ehLVm4-16" target="p5L4UiXrf9V-w9ehLVm4-132" edge="1">
          <mxGeometry relative="1" as="geometry" />
        </mxCell>
        <mxCell id="p5L4UiXrf9V-w9ehLVm4-135" value="ysyxSoC" style="text;html=1;align=center;verticalAlign=middle;whiteSpace=wrap;rounded=0;" parent="1" vertex="1">
          <mxGeometry x="1000" y="360" width="60" height="20" as="geometry" />
        </mxCell>
        <mxCell id="p5L4UiXrf9V-w9ehLVm4-136" value="URAT" style="rounded=0;whiteSpace=wrap;html=1;" parent="1" vertex="1">
          <mxGeometry x="1009" y="382" width="120" height="30" as="geometry" />
        </mxCell>
        <mxCell id="p5L4UiXrf9V-w9ehLVm4-137" value="SRAM" style="rounded=0;whiteSpace=wrap;html=1;" parent="1" vertex="1">
          <mxGeometry x="1010" y="424" width="120" height="30" as="geometry" />
        </mxCell>
        <mxCell id="p5L4UiXrf9V-w9ehLVm4-138" value="SPI-Master" style="rounded=0;whiteSpace=wrap;html=1;" parent="1" vertex="1">
          <mxGeometry x="1010" y="464" width="120" height="30" as="geometry" />
        </mxCell>
        <mxCell id="p5L4UiXrf9V-w9ehLVm4-139" value="GPIO" style="rounded=0;whiteSpace=wrap;html=1;" parent="1" vertex="1">
          <mxGeometry x="1010" y="504" width="120" height="30" as="geometry" />
        </mxCell>
        <mxCell id="p5L4UiXrf9V-w9ehLVm4-140" value="PS2" style="rounded=0;whiteSpace=wrap;html=1;" parent="1" vertex="1">
          <mxGeometry x="1010" y="544" width="120" height="30" as="geometry" />
        </mxCell>
        <mxCell id="p5L4UiXrf9V-w9ehLVm4-141" value="MROM" style="rounded=0;whiteSpace=wrap;html=1;" parent="1" vertex="1">
          <mxGeometry x="1010" y="584" width="120" height="30" as="geometry" />
        </mxCell>
        <mxCell id="p5L4UiXrf9V-w9ehLVm4-142" value="VGA" style="rounded=0;whiteSpace=wrap;html=1;" parent="1" vertex="1">
          <mxGeometry x="1010" y="624" width="120" height="30" as="geometry" />
        </mxCell>
        <mxCell id="p5L4UiXrf9V-w9ehLVm4-144" value="Flash" style="rounded=0;whiteSpace=wrap;html=1;" parent="1" vertex="1">
          <mxGeometry x="1009" y="664" width="120" height="30" as="geometry" />
        </mxCell>
        <mxCell id="p5L4UiXrf9V-w9ehLVm4-145" value="Chiplink" style="rounded=0;whiteSpace=wrap;html=1;" parent="1" vertex="1">
          <mxGeometry x="1010" y="704" width="120" height="30" as="geometry" />
        </mxCell>
        <mxCell id="p5L4UiXrf9V-w9ehLVm4-146" value="PSRAM" style="rounded=0;whiteSpace=wrap;html=1;" parent="1" vertex="1">
          <mxGeometry x="1009" y="743" width="120" height="30" as="geometry" />
        </mxCell>
        <mxCell id="p5L4UiXrf9V-w9ehLVm4-147" value="SDRAM" style="rounded=0;whiteSpace=wrap;html=1;" parent="1" vertex="1">
          <mxGeometry x="1009" y="780" width="120" height="30" as="geometry" />
        </mxCell>
        <mxCell id="p5L4UiXrf9V-w9ehLVm4-149" value="" style="endArrow=classic;startArrow=classic;html=1;rounded=0;exitX=0.5;exitY=0;exitDx=0;exitDy=0;entryX=0.866;entryY=1;entryDx=0;entryDy=0;entryPerimeter=0;strokeColor=#D79B00;" parent="1" source="p5L4UiXrf9V-w9ehLVm4-27" target="p5L4UiXrf9V-w9ehLVm4-29" edge="1">
          <mxGeometry width="50" height="50" relative="1" as="geometry">
            <mxPoint x="130" y="340" as="sourcePoint" />
            <mxPoint x="180" y="290" as="targetPoint" />
            <Array as="points">
              <mxPoint x="605" y="390" />
              <mxPoint x="190" y="390" />
            </Array>
          </mxGeometry>
        </mxCell>
        <mxCell id="p5L4UiXrf9V-w9ehLVm4-152" value="IF" style="whiteSpace=wrap;html=1;aspect=fixed;" parent="1" vertex="1">
          <mxGeometry x="920" y="90" width="30" height="30" as="geometry" />
        </mxCell>
        <mxCell id="p5L4UiXrf9V-w9ehLVm4-153" value="ID" style="whiteSpace=wrap;html=1;aspect=fixed;" parent="1" vertex="1">
          <mxGeometry x="950" y="90" width="30" height="30" as="geometry" />
        </mxCell>
        <mxCell id="p5L4UiXrf9V-w9ehLVm4-154" value="EX" style="whiteSpace=wrap;html=1;aspect=fixed;" parent="1" vertex="1">
          <mxGeometry x="980" y="90" width="30" height="30" as="geometry" />
        </mxCell>
        <mxCell id="p5L4UiXrf9V-w9ehLVm4-155" value="LS+WB" style="rounded=0;whiteSpace=wrap;html=1;" parent="1" vertex="1">
          <mxGeometry x="1010" y="90" width="59" height="30" as="geometry" />
        </mxCell>
        <mxCell id="p5L4UiXrf9V-w9ehLVm4-156" value="4-Stage Pipeline" style="text;html=1;align=center;verticalAlign=middle;whiteSpace=wrap;rounded=0;" parent="1" vertex="1">
          <mxGeometry x="920" y="60" width="140" height="30" as="geometry" />
        </mxCell>
        <mxCell id="G3IrLJ2idyfWQvbDSn6W-3" value="" style="endArrow=classic;html=1;rounded=0;entryX=0.748;entryY=1.033;entryDx=0;entryDy=0;entryPerimeter=0;fillColor=#e1d5e7;strokeColor=#9673a6;" parent="1" target="p5L4UiXrf9V-w9ehLVm4-29" edge="1">
          <mxGeometry width="50" height="50" relative="1" as="geometry">
            <mxPoint x="610" y="62" as="sourcePoint" />
            <mxPoint x="180" y="291.99999999999994" as="targetPoint" />
            <Array as="points">
              <mxPoint x="610" y="352" />
              <mxPoint x="180" y="352" />
            </Array>
          </mxGeometry>
        </mxCell>
        <mxCell id="G3IrLJ2idyfWQvbDSn6W-4" value="src-sel" style="text;html=1;align=center;verticalAlign=middle;whiteSpace=wrap;rounded=0;" parent="1" vertex="1">
          <mxGeometry x="300" y="170" width="50" height="20" as="geometry" />
        </mxCell>
        <mxCell id="G3IrLJ2idyfWQvbDSn6W-5" value="Control-Sig" style="text;html=1;align=center;verticalAlign=middle;whiteSpace=wrap;rounded=0;" parent="1" vertex="1">
          <mxGeometry x="260" y="69.25" width="70" height="10.5" as="geometry" />
        </mxCell>
        <mxCell id="G3IrLJ2idyfWQvbDSn6W-6" value="" style="endArrow=classic;html=1;rounded=0;" parent="1" edge="1">
          <mxGeometry width="50" height="50" relative="1" as="geometry">
            <mxPoint x="340" y="250" as="sourcePoint" />
            <mxPoint x="350" y="70" as="targetPoint" />
            <Array as="points">
              <mxPoint x="350" y="250" />
            </Array>
          </mxGeometry>
        </mxCell>
        <mxCell id="G3IrLJ2idyfWQvbDSn6W-7" value="stall" style="text;html=1;align=center;verticalAlign=middle;whiteSpace=wrap;rounded=0;" parent="1" vertex="1">
          <mxGeometry x="320" y="210" width="30" height="20" as="geometry" />
        </mxCell>
        <mxCell id="G3IrLJ2idyfWQvbDSn6W-8" value="next-pc" style="text;html=1;align=center;verticalAlign=middle;whiteSpace=wrap;rounded=0;" parent="1" vertex="1">
          <mxGeometry x="160" y="439" width="50" height="15" as="geometry" />
        </mxCell>
        <mxCell id="G3IrLJ2idyfWQvbDSn6W-9" value="Inst" style="text;html=1;align=center;verticalAlign=middle;whiteSpace=wrap;rounded=0;" parent="1" vertex="1">
          <mxGeometry x="355" y="402" width="30" height="10" as="geometry" />
        </mxCell>
        <mxCell id="G3IrLJ2idyfWQvbDSn6W-10" value="PCs" style="text;html=1;align=center;verticalAlign=middle;whiteSpace=wrap;rounded=0;" parent="1" vertex="1">
          <mxGeometry x="700" y="460" width="60" height="30" as="geometry" />
        </mxCell>
        <mxCell id="G3IrLJ2idyfWQvbDSn6W-11" value="WBU-pc" style="text;html=1;align=center;verticalAlign=middle;whiteSpace=wrap;rounded=0;" parent="1" vertex="1">
          <mxGeometry x="799" y="530" width="54" height="26" as="geometry" />
        </mxCell>
        <mxCell id="G3IrLJ2idyfWQvbDSn6W-12" value="AXI4-master/slave io&lt;div&gt;and interrupt&lt;/div&gt;" style="text;html=1;align=center;verticalAlign=middle;whiteSpace=wrap;rounded=0;" parent="1" vertex="1">
          <mxGeometry x="700" y="750" width="119" height="30" as="geometry" />
        </mxCell>
        <mxCell id="G3IrLJ2idyfWQvbDSn6W-13" value="next-pc" style="text;html=1;align=center;verticalAlign=middle;whiteSpace=wrap;rounded=0;" parent="1" vertex="1">
          <mxGeometry x="620" y="790" width="50" height="20" as="geometry" />
        </mxCell>
        <mxCell id="G3IrLJ2idyfWQvbDSn6W-14" value="REG-Write Channel" style="text;html=1;align=center;verticalAlign=middle;whiteSpace=wrap;rounded=0;" parent="1" vertex="1">
          <mxGeometry x="750" y="667.5" width="80" height="30" as="geometry" />
        </mxCell>
        <mxCell id="G3IrLJ2idyfWQvbDSn6W-15" value="Forwarding&lt;div&gt;(EXU-&amp;gt;IDU)&lt;/div&gt;" style="text;html=1;align=center;verticalAlign=middle;whiteSpace=wrap;rounded=0;" parent="1" vertex="1">
          <mxGeometry x="605" y="145" width="80" height="30" as="geometry" />
        </mxCell>
        <mxCell id="G3IrLJ2idyfWQvbDSn6W-16" value="AXI-R" style="text;html=1;align=center;verticalAlign=middle;whiteSpace=wrap;rounded=0;" parent="1" vertex="1">
          <mxGeometry x="350" y="570" width="40" height="20" as="geometry" />
        </mxCell>
        <mxCell id="G3IrLJ2idyfWQvbDSn6W-17" value="AXI-RW" style="text;html=1;align=center;verticalAlign=middle;whiteSpace=wrap;rounded=0;" parent="1" vertex="1">
          <mxGeometry x="626" y="320" width="55" height="20" as="geometry" />
        </mxCell>
        <mxCell id="G3IrLJ2idyfWQvbDSn6W-18" value="BPU" style="text;html=1;align=center;verticalAlign=middle;whiteSpace=wrap;rounded=0;" parent="1" vertex="1">
          <mxGeometry x="210" y="429.75" width="30" height="20.25" as="geometry" />
        </mxCell>
        <mxCell id="G3IrLJ2idyfWQvbDSn6W-19" value="BTB" style="shape=process;whiteSpace=wrap;html=1;backgroundOutline=1;" parent="1" vertex="1">
          <mxGeometry x="280" y="439" width="70" height="31" as="geometry" />
        </mxCell>
      </root>
    </mxGraphModel>
  </diagram>
</mxfile>
